<mxfile host="Electron" agent="Mozilla/5.0 (Macintosh; Intel Mac OS X 10_15_7) AppleWebKit/537.36 (KHTML, like Gecko) draw.io/24.7.5 Chrome/126.0.6478.183 Electron/31.3.0 Safari/537.36" version="24.7.5">
  <diagram id="R2lEEEUBdFMjLlhIrx00" name="Page-1">
    <mxGraphModel dx="1114" dy="768" grid="1" gridSize="10" guides="1" tooltips="1" connect="1" arrows="1" fold="1" page="1" pageScale="1" pageWidth="850" pageHeight="1100" math="0" shadow="0" extFonts="Permanent Marker^https://fonts.googleapis.com/css?family=Permanent+Marker">
      <root>
        <mxCell id="0" />
        <mxCell id="1" parent="0" />
        <mxCell id="VhhlfXbD_9GwfbsZCxs5-2" value="Route" style="rounded=0;whiteSpace=wrap;html=1;fillColor=#008a00;fontColor=#ffffff;strokeColor=#005700;" parent="1" vertex="1">
          <mxGeometry x="300" y="180" width="120" height="60" as="geometry" />
        </mxCell>
        <mxCell id="VhhlfXbD_9GwfbsZCxs5-3" value="&lt;u&gt;id (Long)&lt;/u&gt;" style="ellipse;whiteSpace=wrap;html=1;fillColor=#d5e8d4;strokeColor=#82b366;" parent="1" vertex="1">
          <mxGeometry x="10" y="30" width="90" height="40" as="geometry" />
        </mxCell>
        <mxCell id="VhhlfXbD_9GwfbsZCxs5-4" value="name(String-not null)" style="ellipse;whiteSpace=wrap;html=1;fillColor=#d5e8d4;strokeColor=#82b366;" parent="1" vertex="1">
          <mxGeometry x="120" y="30" width="110" height="40" as="geometry" />
        </mxCell>
        <mxCell id="VhhlfXbD_9GwfbsZCxs5-5" value="description(String)" style="ellipse;whiteSpace=wrap;html=1;fillColor=#d5e8d4;strokeColor=#82b366;" parent="1" vertex="1">
          <mxGeometry x="250" y="30" width="120" height="40" as="geometry" />
        </mxCell>
        <mxCell id="VhhlfXbD_9GwfbsZCxs5-6" value="start(String)" style="ellipse;whiteSpace=wrap;html=1;fillColor=#d5e8d4;strokeColor=#82b366;" parent="1" vertex="1">
          <mxGeometry x="380" y="30" width="100" height="40" as="geometry" />
        </mxCell>
        <mxCell id="VhhlfXbD_9GwfbsZCxs5-9" value="f_&lt;span style=&quot;background-color: initial;&quot;&gt;province (String,default Malaga)&lt;/span&gt;" style="ellipse;whiteSpace=wrap;html=1;fillColor=#d5e8d4;strokeColor=#82b366;" parent="1" vertex="1">
          <mxGeometry x="495" y="160" width="180" height="40" as="geometry" />
        </mxCell>
        <mxCell id="VhhlfXbD_9GwfbsZCxs5-10" value="f_area(String, default Malaga)" style="ellipse;whiteSpace=wrap;html=1;fillColor=#d5e8d4;strokeColor=#82b366;" parent="1" vertex="1">
          <mxGeometry x="490" y="220" width="170" height="40" as="geometry" />
        </mxCell>
        <mxCell id="VhhlfXbD_9GwfbsZCxs5-12" value="" style="endArrow=none;html=1;rounded=0;exitX=0.375;exitY=1;exitDx=0;exitDy=0;exitPerimeter=0;" parent="1" source="VhhlfXbD_9GwfbsZCxs5-4" target="VhhlfXbD_9GwfbsZCxs5-2" edge="1">
          <mxGeometry width="50" height="50" relative="1" as="geometry">
            <mxPoint x="400" y="100" as="sourcePoint" />
            <mxPoint x="450" y="50" as="targetPoint" />
          </mxGeometry>
        </mxCell>
        <mxCell id="VhhlfXbD_9GwfbsZCxs5-13" value="" style="endArrow=none;html=1;rounded=0;exitX=0.5;exitY=1;exitDx=0;exitDy=0;exitPerimeter=0;" parent="1" source="VhhlfXbD_9GwfbsZCxs5-5" edge="1">
          <mxGeometry width="50" height="50" relative="1" as="geometry">
            <mxPoint x="400" y="100" as="sourcePoint" />
            <mxPoint x="360" y="180" as="targetPoint" />
          </mxGeometry>
        </mxCell>
        <mxCell id="VhhlfXbD_9GwfbsZCxs5-14" value="" style="endArrow=none;html=1;rounded=0;exitX=0.425;exitY=1.038;exitDx=0;exitDy=0;exitPerimeter=0;" parent="1" source="VhhlfXbD_9GwfbsZCxs5-6" target="VhhlfXbD_9GwfbsZCxs5-2" edge="1">
          <mxGeometry width="50" height="50" relative="1" as="geometry">
            <mxPoint x="400" y="100" as="sourcePoint" />
            <mxPoint x="450" y="50" as="targetPoint" />
          </mxGeometry>
        </mxCell>
        <mxCell id="VhhlfXbD_9GwfbsZCxs5-15" value="" style="endArrow=none;html=1;rounded=0;entryX=0;entryY=1;entryDx=0;entryDy=0;" parent="1" source="VhhlfXbD_9GwfbsZCxs5-2" target="VhhlfXbD_9GwfbsZCxs5-7" edge="1">
          <mxGeometry width="50" height="50" relative="1" as="geometry">
            <mxPoint x="400" y="100" as="sourcePoint" />
            <mxPoint x="450" y="50" as="targetPoint" />
          </mxGeometry>
        </mxCell>
        <mxCell id="VhhlfXbD_9GwfbsZCxs5-16" value="" style="endArrow=none;html=1;rounded=0;entryX=0;entryY=0.5;entryDx=0;entryDy=0;exitX=1;exitY=0.25;exitDx=0;exitDy=0;" parent="1" source="VhhlfXbD_9GwfbsZCxs5-2" target="VhhlfXbD_9GwfbsZCxs5-9" edge="1">
          <mxGeometry width="50" height="50" relative="1" as="geometry">
            <mxPoint x="400" y="100" as="sourcePoint" />
            <mxPoint x="450" y="50" as="targetPoint" />
          </mxGeometry>
        </mxCell>
        <mxCell id="VhhlfXbD_9GwfbsZCxs5-17" value="" style="endArrow=none;html=1;rounded=0;entryX=0;entryY=0.5;entryDx=0;entryDy=0;exitX=1;exitY=0.75;exitDx=0;exitDy=0;" parent="1" source="VhhlfXbD_9GwfbsZCxs5-2" target="VhhlfXbD_9GwfbsZCxs5-10" edge="1">
          <mxGeometry width="50" height="50" relative="1" as="geometry">
            <mxPoint x="400" y="100" as="sourcePoint" />
            <mxPoint x="450" y="50" as="targetPoint" />
            <Array as="points">
              <mxPoint x="460" y="230" />
            </Array>
          </mxGeometry>
        </mxCell>
        <mxCell id="VhhlfXbD_9GwfbsZCxs5-18" value="" style="endArrow=none;html=1;rounded=0;exitX=0.5;exitY=1;exitDx=0;exitDy=0;entryX=0;entryY=0.5;entryDx=0;entryDy=0;" parent="1" source="VhhlfXbD_9GwfbsZCxs5-3" target="VhhlfXbD_9GwfbsZCxs5-2" edge="1">
          <mxGeometry width="50" height="50" relative="1" as="geometry">
            <mxPoint x="400" y="100" as="sourcePoint" />
            <mxPoint x="450" y="50" as="targetPoint" />
          </mxGeometry>
        </mxCell>
        <mxCell id="VhhlfXbD_9GwfbsZCxs5-19" value="Meeting" style="rhombus;whiteSpace=wrap;html=1;fillColor=#a20025;fontColor=#ffffff;strokeColor=#6F0000;" parent="1" vertex="1">
          <mxGeometry x="320" y="300" width="80" height="80" as="geometry" />
        </mxCell>
        <mxCell id="VhhlfXbD_9GwfbsZCxs5-20" value="Date (LocalDateTime, default CURRENT_TIMESTAMP)" style="ellipse;whiteSpace=wrap;html=1;fillColor=#ffe6cc;strokeColor=#d79b00;" parent="1" vertex="1">
          <mxGeometry x="440" y="320" width="210" height="40" as="geometry" />
        </mxCell>
        <mxCell id="VhhlfXbD_9GwfbsZCxs5-26" value="" style="endArrow=none;html=1;rounded=0;exitX=1;exitY=0.5;exitDx=0;exitDy=0;entryX=0;entryY=0.5;entryDx=0;entryDy=0;" parent="1" source="VhhlfXbD_9GwfbsZCxs5-19" target="VhhlfXbD_9GwfbsZCxs5-20" edge="1">
          <mxGeometry width="50" height="50" relative="1" as="geometry">
            <mxPoint x="400" y="420" as="sourcePoint" />
            <mxPoint x="440" y="420" as="targetPoint" />
            <Array as="points">
              <mxPoint x="420" y="340" />
            </Array>
          </mxGeometry>
        </mxCell>
        <mxCell id="VhhlfXbD_9GwfbsZCxs5-32" value="" style="endArrow=none;html=1;rounded=0;entryX=0.5;entryY=0;entryDx=0;entryDy=0;exitX=0.5;exitY=1;exitDx=0;exitDy=0;" parent="1" source="VhhlfXbD_9GwfbsZCxs5-2" target="VhhlfXbD_9GwfbsZCxs5-19" edge="1">
          <mxGeometry width="50" height="50" relative="1" as="geometry">
            <mxPoint x="400" y="100" as="sourcePoint" />
            <mxPoint x="450" y="50" as="targetPoint" />
          </mxGeometry>
        </mxCell>
        <mxCell id="VhhlfXbD_9GwfbsZCxs5-33" value="(0,N)" style="text;strokeColor=none;fillColor=none;html=1;fontSize=24;fontStyle=1;verticalAlign=middle;align=center;fontFamily=Helvetica;fontColor=default;" parent="1" vertex="1">
          <mxGeometry x="340" y="460" width="100" height="40" as="geometry" />
        </mxCell>
        <mxCell id="VhhlfXbD_9GwfbsZCxs5-35" value="N:M" style="text;strokeColor=none;fillColor=none;html=1;fontSize=24;fontStyle=1;verticalAlign=middle;align=center;" parent="1" vertex="1">
          <mxGeometry x="240" y="320" width="100" height="40" as="geometry" />
        </mxCell>
        <mxCell id="VhhlfXbD_9GwfbsZCxs5-36" value="User" style="rounded=0;whiteSpace=wrap;html=1;fillColor=#1ba1e2;fontColor=#ffffff;strokeColor=#006EAF;" parent="1" vertex="1">
          <mxGeometry x="305" y="500" width="110" height="50" as="geometry" />
        </mxCell>
        <mxCell id="VhhlfXbD_9GwfbsZCxs5-37" value="" style="endArrow=none;html=1;rounded=0;exitX=0.5;exitY=0;exitDx=0;exitDy=0;entryX=0.5;entryY=1;entryDx=0;entryDy=0;" parent="1" source="VhhlfXbD_9GwfbsZCxs5-36" target="VhhlfXbD_9GwfbsZCxs5-19" edge="1">
          <mxGeometry width="50" height="50" relative="1" as="geometry">
            <mxPoint x="400" y="480" as="sourcePoint" />
            <mxPoint x="360" y="460" as="targetPoint" />
          </mxGeometry>
        </mxCell>
        <mxCell id="VhhlfXbD_9GwfbsZCxs5-38" value="(0,N)" style="text;strokeColor=none;fillColor=none;html=1;fontSize=24;fontStyle=1;verticalAlign=middle;align=center;fontFamily=Helvetica;fontColor=default;" parent="1" vertex="1">
          <mxGeometry x="340" y="250" width="100" height="40" as="geometry" />
        </mxCell>
        <mxCell id="VhhlfXbD_9GwfbsZCxs5-39" value="&lt;u&gt;name(String)&lt;/u&gt;" style="ellipse;whiteSpace=wrap;html=1;fillColor=#dae8fc;strokeColor=#6c8ebf;" parent="1" vertex="1">
          <mxGeometry x="30" y="460" width="100" height="40" as="geometry" />
        </mxCell>
        <mxCell id="VhhlfXbD_9GwfbsZCxs5-40" value="password(String-notNull)" style="ellipse;whiteSpace=wrap;html=1;fillColor=#dae8fc;strokeColor=#6c8ebf;" parent="1" vertex="1">
          <mxGeometry x="25" y="520" width="110" height="40" as="geometry" />
        </mxCell>
        <mxCell id="VhhlfXbD_9GwfbsZCxs5-43" value="email(String)" style="ellipse;whiteSpace=wrap;html=1;fillColor=#dae8fc;strokeColor=#6c8ebf;" parent="1" vertex="1">
          <mxGeometry x="25" y="585" width="105" height="45" as="geometry" />
        </mxCell>
        <mxCell id="VhhlfXbD_9GwfbsZCxs5-44" value="icon(String)" style="ellipse;whiteSpace=wrap;html=1;align=center;fillColor=#dae8fc;strokeColor=#6c8ebf;" parent="1" vertex="1">
          <mxGeometry x="135" y="600" width="100" height="40" as="geometry" />
        </mxCell>
        <mxCell id="VhhlfXbD_9GwfbsZCxs5-49" value="" style="endArrow=none;html=1;rounded=0;entryX=0;entryY=0;entryDx=0;entryDy=0;" parent="1" source="VhhlfXbD_9GwfbsZCxs5-39" target="VhhlfXbD_9GwfbsZCxs5-36" edge="1">
          <mxGeometry width="50" height="50" relative="1" as="geometry">
            <mxPoint x="420" y="480" as="sourcePoint" />
            <mxPoint x="470" y="430" as="targetPoint" />
          </mxGeometry>
        </mxCell>
        <mxCell id="VhhlfXbD_9GwfbsZCxs5-50" value="" style="endArrow=none;html=1;rounded=0;exitX=0.727;exitY=0.05;exitDx=0;exitDy=0;exitPerimeter=0;entryX=0;entryY=0.5;entryDx=0;entryDy=0;" parent="1" source="VhhlfXbD_9GwfbsZCxs5-40" target="VhhlfXbD_9GwfbsZCxs5-36" edge="1">
          <mxGeometry width="50" height="50" relative="1" as="geometry">
            <mxPoint x="420" y="480" as="sourcePoint" />
            <mxPoint x="470" y="430" as="targetPoint" />
          </mxGeometry>
        </mxCell>
        <mxCell id="VhhlfXbD_9GwfbsZCxs5-51" value="" style="endArrow=none;html=1;rounded=0;entryX=0;entryY=1;entryDx=0;entryDy=0;" parent="1" source="VhhlfXbD_9GwfbsZCxs5-43" target="VhhlfXbD_9GwfbsZCxs5-36" edge="1">
          <mxGeometry width="50" height="50" relative="1" as="geometry">
            <mxPoint x="420" y="480" as="sourcePoint" />
            <mxPoint x="470" y="430" as="targetPoint" />
          </mxGeometry>
        </mxCell>
        <mxCell id="VhhlfXbD_9GwfbsZCxs5-52" value="" style="endArrow=none;html=1;rounded=0;exitX=0.5;exitY=0;exitDx=0;exitDy=0;entryX=0.25;entryY=1;entryDx=0;entryDy=0;" parent="1" source="VhhlfXbD_9GwfbsZCxs5-44" target="VhhlfXbD_9GwfbsZCxs5-36" edge="1">
          <mxGeometry width="50" height="50" relative="1" as="geometry">
            <mxPoint x="420" y="480" as="sourcePoint" />
            <mxPoint x="470" y="430" as="targetPoint" />
          </mxGeometry>
        </mxCell>
        <mxCell id="VhhlfXbD_9GwfbsZCxs5-61" value="f_difficulty(Byte, default 1)" style="ellipse;whiteSpace=wrap;html=1;fillColor=#d5e8d4;strokeColor=#82b366;" parent="1" vertex="1">
          <mxGeometry x="580" width="170" height="40" as="geometry" />
        </mxCell>
        <mxCell id="VhhlfXbD_9GwfbsZCxs5-62" value="f_distance(Int, default 0)" style="ellipse;whiteSpace=wrap;html=1;fillColor=#d5e8d4;strokeColor=#82b366;" parent="1" vertex="1">
          <mxGeometry x="680" y="90" width="170" height="40" as="geometry" />
        </mxCell>
        <mxCell id="VhhlfXbD_9GwfbsZCxs5-64" value="" style="endArrow=none;html=1;rounded=0;exitX=0.629;exitY=0.05;exitDx=0;exitDy=0;exitPerimeter=0;entryX=0;entryY=0.5;entryDx=0;entryDy=0;" parent="1" source="VhhlfXbD_9GwfbsZCxs5-2" target="VhhlfXbD_9GwfbsZCxs5-61" edge="1">
          <mxGeometry width="50" height="50" relative="1" as="geometry">
            <mxPoint x="430" y="420" as="sourcePoint" />
            <mxPoint x="680" y="60" as="targetPoint" />
          </mxGeometry>
        </mxCell>
        <mxCell id="VhhlfXbD_9GwfbsZCxs5-65" value="" style="endArrow=none;html=1;rounded=0;entryX=0;entryY=0.5;entryDx=0;entryDy=0;" parent="1" source="VhhlfXbD_9GwfbsZCxs5-2" target="VhhlfXbD_9GwfbsZCxs5-62" edge="1">
          <mxGeometry width="50" height="50" relative="1" as="geometry">
            <mxPoint x="430" y="420" as="sourcePoint" />
            <mxPoint x="480" y="370" as="targetPoint" />
          </mxGeometry>
        </mxCell>
        <mxCell id="VhhlfXbD_9GwfbsZCxs5-67" value="f_country(String, default Spain)" style="ellipse;whiteSpace=wrap;html=1;fillColor=#dae8fc;strokeColor=#6c8ebf;" parent="1" vertex="1">
          <mxGeometry x="470" y="500" width="190" height="38" as="geometry" />
        </mxCell>
        <mxCell id="VhhlfXbD_9GwfbsZCxs5-68" value="f_province (String,default Malaga)" style="ellipse;whiteSpace=wrap;html=1;fillColor=#dae8fc;strokeColor=#6c8ebf;" parent="1" vertex="1">
          <mxGeometry x="360" y="615" width="205" height="30" as="geometry" />
        </mxCell>
        <mxCell id="VhhlfXbD_9GwfbsZCxs5-69" value="f_area(String, default Malaga)" style="ellipse;whiteSpace=wrap;html=1;fillColor=#dae8fc;strokeColor=#6c8ebf;" parent="1" vertex="1">
          <mxGeometry x="280" y="650" width="140" height="40" as="geometry" />
        </mxCell>
        <mxCell id="VhhlfXbD_9GwfbsZCxs5-70" value="f_difficulty(Byte, default 1)" style="ellipse;whiteSpace=wrap;html=1;fillColor=#dae8fc;strokeColor=#6c8ebf;" parent="1" vertex="1">
          <mxGeometry x="680" y="430" width="160" height="40" as="geometry" />
        </mxCell>
        <mxCell id="VhhlfXbD_9GwfbsZCxs5-71" value="f_distanceApprox(Int, default 0)" style="ellipse;whiteSpace=wrap;html=1;fillColor=#dae8fc;strokeColor=#6c8ebf;" parent="1" vertex="1">
          <mxGeometry x="640" y="570" width="170" height="40" as="geometry" />
        </mxCell>
        <mxCell id="VhhlfXbD_9GwfbsZCxs5-73" value="" style="endArrow=none;html=1;rounded=0;exitX=1;exitY=0.5;exitDx=0;exitDy=0;entryX=0;entryY=0.5;entryDx=0;entryDy=0;" parent="1" source="VhhlfXbD_9GwfbsZCxs5-36" target="VhhlfXbD_9GwfbsZCxs5-67" edge="1">
          <mxGeometry width="50" height="50" relative="1" as="geometry">
            <mxPoint x="520" y="610" as="sourcePoint" />
            <mxPoint x="500" y="520" as="targetPoint" />
          </mxGeometry>
        </mxCell>
        <mxCell id="VhhlfXbD_9GwfbsZCxs5-74" value="" style="endArrow=none;html=1;rounded=0;entryX=0.5;entryY=0;entryDx=0;entryDy=0;exitX=0.691;exitY=1.06;exitDx=0;exitDy=0;exitPerimeter=0;" parent="1" source="VhhlfXbD_9GwfbsZCxs5-36" target="VhhlfXbD_9GwfbsZCxs5-68" edge="1">
          <mxGeometry width="50" height="50" relative="1" as="geometry">
            <mxPoint x="410" y="530" as="sourcePoint" />
            <mxPoint x="570" y="560" as="targetPoint" />
          </mxGeometry>
        </mxCell>
        <mxCell id="VhhlfXbD_9GwfbsZCxs5-75" value="" style="endArrow=none;html=1;rounded=0;exitX=1;exitY=0.25;exitDx=0;exitDy=0;entryX=0;entryY=0.5;entryDx=0;entryDy=0;" parent="1" source="VhhlfXbD_9GwfbsZCxs5-36" target="VhhlfXbD_9GwfbsZCxs5-70" edge="1">
          <mxGeometry width="50" height="50" relative="1" as="geometry">
            <mxPoint x="520" y="610" as="sourcePoint" />
            <mxPoint x="570" y="560" as="targetPoint" />
          </mxGeometry>
        </mxCell>
        <mxCell id="VhhlfXbD_9GwfbsZCxs5-76" value="" style="endArrow=none;html=1;rounded=0;exitX=1;exitY=0.75;exitDx=0;exitDy=0;entryX=0;entryY=0.5;entryDx=0;entryDy=0;" parent="1" source="VhhlfXbD_9GwfbsZCxs5-36" target="VhhlfXbD_9GwfbsZCxs5-71" edge="1">
          <mxGeometry width="50" height="50" relative="1" as="geometry">
            <mxPoint x="520" y="610" as="sourcePoint" />
            <mxPoint x="570" y="560" as="targetPoint" />
          </mxGeometry>
        </mxCell>
        <mxCell id="VhhlfXbD_9GwfbsZCxs5-78" value="" style="endArrow=none;html=1;rounded=0;entryX=0.429;entryY=0;entryDx=0;entryDy=0;entryPerimeter=0;" parent="1" source="VhhlfXbD_9GwfbsZCxs5-36" target="VhhlfXbD_9GwfbsZCxs5-69" edge="1">
          <mxGeometry width="50" height="50" relative="1" as="geometry">
            <mxPoint x="400" y="560" as="sourcePoint" />
            <mxPoint x="570" y="560" as="targetPoint" />
          </mxGeometry>
        </mxCell>
        <mxCell id="VhhlfXbD_9GwfbsZCxs5-7" value="f_country(String, default Spain)" style="ellipse;whiteSpace=wrap;html=1;fillColor=#d5e8d4;strokeColor=#82b366;" parent="1" vertex="1">
          <mxGeometry x="495" y="80" width="150" height="50" as="geometry" />
        </mxCell>
      </root>
    </mxGraphModel>
  </diagram>
</mxfile>
